REM DIRINDEX 1\5,1\2\6,1\2\7,1\3\8,1\3\9,1\3\10,1\3\11,1\4\12,1\4\13,1\4\14
REM DIRNAME cjc042,folder01,folder02,folder03,folder04,folder05,folder06,folder07,folder08,folder09,folder10,folder11,folder12,folder13
TITLE ""
FILE "4Q_j_613-620.mp3" MP3
  TRACK 01 AUDIO
    TITLE "8:cjc042_0705"
    INDEX 01 00:00:00
  TRACK 02 AUDIO
    TITLE "0:"
    INDEX 01 00:01:26
  TRACK 03 AUDIO
    TITLE "9:cjc042_0706"
    INDEX 01 00:02:02
  TRACK 04 AUDIO
    TITLE "0:"
    INDEX 01 00:03:33
  TRACK 05 AUDIO
    TITLE "10:cjc042_0707"
    INDEX 01 00:04:13
  TRACK 06 AUDIO
    TITLE "0:"
    INDEX 01 00:06:31
  TRACK 07 AUDIO
    TITLE "11:cjc042_0708"
    INDEX 01 00:07:05
  TRACK 08 AUDIO
    TITLE "0:"
    INDEX 01 00:12:36
  TRACK 09 AUDIO
    TITLE "8:cjc042_0709"
    INDEX 01 00:13:08
  TRACK 10 AUDIO
    TITLE "0:"
    INDEX 01 00:14:39
  TRACK 11 AUDIO
    TITLE "9:cjc042_0710"
    INDEX 01 00:15:19
  TRACK 12 AUDIO
    TITLE "0:"
    INDEX 01 00:17:41
  TRACK 13 AUDIO
    TITLE "10:cjc042_0711"
    INDEX 01 00:18:19
  TRACK 14 AUDIO
    TITLE "0:"
    INDEX 01 00:22:40
  TRACK 15 AUDIO
    TITLE "11:cjc042_0712"
    INDEX 01 00:23:16
  TRACK 16 AUDIO
    TITLE "0:"
    INDEX 01 00:27:51
  TRACK 17 AUDIO
    TITLE "8:cjc042_0713"
    INDEX 01 00:28:31
  TRACK 18 AUDIO
    TITLE "0:"
    INDEX 01 00:30:18
  TRACK 19 AUDIO
    TITLE "9:cjc042_0714"
    INDEX 01 00:30:73
  TRACK 20 AUDIO
    TITLE "0:"
    INDEX 01 00:32:39
  TRACK 21 AUDIO
    TITLE "10:cjc042_0715"
    INDEX 01 00:33:11
  TRACK 22 AUDIO
    TITLE "0:"
    INDEX 01 00:35:68
  TRACK 23 AUDIO
    TITLE "11:cjc042_0716"
    INDEX 01 00:36:50
  TRACK 24 AUDIO
    TITLE "0:"
    INDEX 01 00:39:62
  TRACK 25 AUDIO
    TITLE "8:cjc042_0717"
    INDEX 01 00:40:38
  TRACK 26 AUDIO
    TITLE "0:"
    INDEX 01 00:42:14
  TRACK 27 AUDIO
    TITLE "9:cjc042_0718"
    INDEX 01 00:42:72
  TRACK 28 AUDIO
    TITLE "0:"
    INDEX 01 00:44:60
  TRACK 29 AUDIO
    TITLE "10:cjc042_0719"
    INDEX 01 00:45:35
  TRACK 30 AUDIO
    TITLE "0:"
    INDEX 01 00:47:72
  TRACK 31 AUDIO
    TITLE "11:cjc042_0720"
    INDEX 01 00:48:53
  TRACK 32 AUDIO
    TITLE "0:"
    INDEX 01 00:51:42
  TRACK 33 AUDIO
    TITLE "8:cjc042_0721"
    INDEX 01 00:52:20
  TRACK 34 AUDIO
    TITLE "0:"
    INDEX 01 00:53:39
  TRACK 35 AUDIO
    TITLE "9:cjc042_0722"
    INDEX 01 00:54:17
  TRACK 36 AUDIO
    TITLE "0:"
    INDEX 01 00:55:18
  TRACK 37 AUDIO
    TITLE "10:cjc042_0723"
    INDEX 01 00:55:71
  TRACK 38 AUDIO
    TITLE "0:"
    INDEX 01 00:58:54
  TRACK 39 AUDIO
    TITLE "11:cjc042_0724"
    INDEX 01 00:59:32
  TRACK 40 AUDIO
    TITLE "0:"
    INDEX 01 01:02:30
  TRACK 41 AUDIO
    TITLE "8:cjc042_0725"
    INDEX 01 01:03:04
  TRACK 42 AUDIO
    TITLE "0:"
    INDEX 01 01:05:09
  TRACK 43 AUDIO
    TITLE "9:cjc042_0726"
    INDEX 01 01:05:66
  TRACK 44 AUDIO
    TITLE "0:"
    INDEX 01 01:08:62
  TRACK 45 AUDIO
    TITLE "10:cjc042_0727"
    INDEX 01 01:09:46
  TRACK 46 AUDIO
    TITLE "0:"
    INDEX 01 01:12:42
  TRACK 47 AUDIO
    TITLE "11:cjc042_0728"
    INDEX 01 01:13:20
  TRACK 48 AUDIO
    TITLE "0:"
    INDEX 01 01:19:11
  TRACK 49 AUDIO
    TITLE "8:cjc042_0729"
    INDEX 01 01:19:64
  TRACK 50 AUDIO
    TITLE "0:"
    INDEX 01 01:21:63
  TRACK 51 AUDIO
    TITLE "9:cjc042_0730"
    INDEX 01 01:22:42
  TRACK 52 AUDIO
    TITLE "0:"
    INDEX 01 01:25:06
  TRACK 53 AUDIO
    TITLE "10:cjc042_0731"
    INDEX 01 01:25:51
  TRACK 54 AUDIO
    TITLE "0:"
    INDEX 01 01:29:15
  TRACK 55 AUDIO
    TITLE "11:cjc042_0732"
    INDEX 01 01:29:70
  TRACK 56 AUDIO
    TITLE "0:"
    INDEX 01 01:33:72
  TRACK 57 AUDIO
    TITLE "8:cjc042_0733"
    INDEX 01 01:34:46
  TRACK 58 AUDIO
    TITLE "0:"
    INDEX 01 01:36:39
  TRACK 59 AUDIO
    TITLE "9:cjc042_0734"
    INDEX 01 01:37:19
  TRACK 60 AUDIO
    TITLE "0:"
    INDEX 01 01:39:45
  TRACK 61 AUDIO
    TITLE "10:cjc042_0735"
    INDEX 01 01:40:23
  TRACK 62 AUDIO
    TITLE "0:"
    INDEX 01 01:43:03
  TRACK 63 AUDIO
    TITLE "11:cjc042_0736"
    INDEX 01 01:43:51
  TRACK 64 AUDIO
    TITLE "0:"
    INDEX 01 01:47:29
